#tb 0: 1/44100
#media_type 0: audio
#codec_id 0: pcm_s16le
#sample_rate 0: 44100
#channel_layout_name 0: stereo
0,          0,          0,     4096,    16384, 0x0608d90b
0,       4096,       4096,     4096,    16384, 0x7832e711
0,       8192,       8192,     4096,    16384, 0x9328e9db
0,      12288,      12288,     4096,    16384, 0x1ff4e0c9
0,      16384,      16384,     4096,    16384, 0xa60fe2af
0,      20480,      20480,     4096,    16384, 0xe360dcb9
0,      24576,      24576,     4096,    16384, 0x5df0d9d7
0,      28672,      28672,     4096,    16384, 0x728de2fd
0,      32768,      32768,     4096,    16384, 0xcae2e103
0,      36864,      36864,     4096,    16384, 0xdeeae505
0,      40960,      40960,     4096,    16384, 0x710dfbca
0,      45056,      45056,     4096,    16384, 0x86ca0082
0,      49152,      49152,     4096,    16384, 0xfcb11030
0,      53248,      53248,     4096,    16384, 0x03d8e51f
0,      57344,      57344,     4096,    16384, 0xe9effd9d
0,      61440,      61440,     4096,    16384, 0x39a1ccbf
0,      65536,      65536,     4096,    16384, 0x8ffec10b
0,      69632,      69632,     4096,    16384, 0x689af327
0,      73728,      73728,     4096,    16384, 0x3b3be6a7
0,      77824,      77824,     4096,    16384, 0x89fcc77b
0,      81920,      81920,     4096,    16384, 0x35bae605
0,      86016,      86016,     4096,    16384, 0x87b21b6c
0,      90112,      90112,     4096,    16384, 0x53c16d1b
0,      94208,      94208,     4096,    16384, 0x8dd81cda
0,      98304,      98304,     4096,    16384, 0x9a29ba35
0,     102400,     102400,     4096,    16384, 0x0943d031
0,     106496,     106496,     4096,    16384, 0x9bd8e041
0,     110592,     110592,     4096,    16384, 0x76b25907
0,     114688,     114688,     4096,    16384, 0x351cc62b
0,     118784,     118784,     4096,    16384, 0x6841f111
0,     122880,     122880,     4096,    16384, 0x109c171c
0,     126976,     126976,     4096,    16384, 0x9958abf9
0,     131072,     131072,     4096,    16384, 0xca6effab
0,     135168,     135168,     4096,    16384, 0x3ee2bf85
0,     139264,     139264,     4096,    16384, 0xc705f05a
0,     143360,     143360,     4096,    16384, 0x83d5cdc5
0,     147456,     147456,     4096,    16384, 0xba24ea5d
0,     151552,     151552,     4096,    16384, 0x6d4ffacc
0,     155648,     155648,     4096,    16384, 0x8407d34e
0,     159744,     159744,     4096,    16384, 0x7f88e064
0,     163840,     163840,     4096,    16384, 0xcd48c4c6
0,     167936,     167936,     4096,    16384, 0xc9e8d7ad
0,     172032,     172032,     4096,    16384, 0x10c8beca
0,     176128,     176128,     4096,    16384, 0x536da198
0,     180224,     180224,     4096,    16384, 0xa759f30b
0,     184320,     184320,     4096,    16384, 0x6645bf2b
0,     188416,     188416,     4096,    16384, 0x8bebecd9
0,     192512,     192512,     4096,    16384, 0x6851f19c
0,     196608,     196608,     4096,    16384, 0xf11fd0cb
0,     200704,     200704,     4096,    16384, 0x0400f6ee
0,     204800,     204800,     4096,    16384, 0xe138d6d2
0,     208896,     208896,     4096,    16384, 0xbf38e026
0,     212992,     212992,     4096,    16384, 0xebe1f1e6
0,     217088,     217088,     4096,    16384, 0x72fdbf2b
0,     221184,     221184,     4096,    16384, 0x8bebecd9
0,     225280,     225280,     4096,    16384, 0x6851f19c
0,     229376,     229376,     4096,    16384, 0xf11fd0cb
0,     233472,     233472,     4096,    16384, 0x0400f6ee
0,     237568,     237568,     4096,    16384, 0xe138d6d2
0,     241664,     241664,     4096,    16384, 0xbf38e026
0,     245760,     245760,     4096,    16384, 0xebe1f1e6
0,     249856,     249856,     4096,    16384, 0x72fdbf2b
0,     253952,     253952,     4096,    16384, 0x8bebecd9
0,     258048,     258048,     4096,    16384, 0x6851f19c
0,     262144,     262144,     2456,     9824, 0x70ac0251
